<svg width="18" height="17" viewBox="0 0 18 17" fill="none" xmlns="http://www.w3.org/2000/svg">
<path fill-rule="evenodd" clip-rule="evenodd" d="M18 10.277V17H14.0696V10.7273C14.0696 9.15155 13.5013 8.07607 12.0785 8.07607C10.9925 8.07607 10.3464 8.80084 10.0619 9.50194C9.95836 9.75259 9.93166 10.1015 9.93166 10.4522V17H6C6 17 6.05296 6.3761 6 5.27547H9.93128V6.93736C9.92326 6.94972 9.9128 6.96321 9.90535 6.97524H9.93128V6.93736C10.4536 6.13951 11.3863 5 13.4742 5C16.061 5 18 6.67577 18 10.277ZM2.01224 0C0.795655 0 0 0.863704 0 1.99928C0 3.11017 0.772721 4 1.96499 4H1.98879C3.22883 4 4 3.11035 4 1.99928C3.97655 0.863704 3.22883 0 2.01224 0ZM0 17H4V5H0V17Z" fill="black"/>
</svg>
