<svg width="156" height="29" viewBox="0 0 156 29" fill="none" xmlns="http://www.w3.org/2000/svg">
<path fill-rule="evenodd" clip-rule="evenodd" d="M68.5031 5.9585H70.482L66.0004 20.5095H63.9049L60.1508 8.7815L56.3966 20.5095H54.3013L49.8196 5.9585H51.7985L55.3781 18.0358L59.1905 5.9585H61.111L64.9234 18.0358L68.5031 5.9585Z" fill="black"/>
<path fill-rule="evenodd" clip-rule="evenodd" d="M72.4612 12.332H83.3164C83.1126 10.7898 82.5306 9.59635 81.5412 8.75254C80.5514 7.90844 79.3876 7.47188 78.0781 7.47188C75.0513 7.47188 72.8394 9.45106 72.4612 12.332ZM83.2872 7.90844C84.6259 9.42176 85.2953 11.2263 85.2953 13.2925C85.2953 13.4961 85.2663 13.8163 85.2371 14.1946H72.4612C72.8394 17.1338 75.1385 18.9964 78.2525 18.9964C80.4643 18.9964 82.1232 18.007 82.938 16.5226L84.6259 17.5121C83.3453 19.5785 81.0463 20.8589 78.2235 20.8589C75.9244 20.8589 74.0619 20.1315 72.6358 18.7054C71.2099 17.2795 70.4822 15.4458 70.4822 13.2341C70.4822 11.0516 71.1807 9.24716 72.6067 7.79218C74.0327 6.33679 75.837 5.60938 78.0781 5.60938C80.2314 5.60938 81.9775 6.36624 83.2872 7.90844Z" fill="black"/>
<path fill-rule="evenodd" clip-rule="evenodd" d="M108.61 11.546V20.5095H104.855V11.8082C104.855 10.0619 103.953 9.04335 102.411 9.04335C100.694 9.04335 99.7044 10.2073 99.7044 12.3319V20.5095H95.95V11.8082C95.95 10.0619 95.0479 9.04335 93.5055 9.04335C91.8468 9.04335 90.7698 10.2073 90.7698 12.3319V20.5095H87.0159V5.95852H90.7698V7.50114C91.643 6.19146 92.9816 5.55127 94.8152 5.55127C96.5905 5.55127 97.9291 6.24952 98.773 7.64644C99.7335 6.24952 101.188 5.55127 103.109 5.55127C106.456 5.55127 108.61 7.9084 108.61 11.546Z" fill="black"/>
<path fill-rule="evenodd" clip-rule="evenodd" d="M118.043 17.3373C119.207 17.3373 120.168 16.9592 120.924 16.2027C121.71 15.4168 122.088 14.4274 122.088 13.2341C122.088 12.0409 121.71 11.0516 120.924 10.2948C120.168 9.50894 119.207 9.13086 118.043 9.13086C116.879 9.13086 115.919 9.50894 115.162 10.2948C114.405 11.0516 114.027 12.0409 114.027 13.2341C114.027 14.4274 114.405 15.4168 115.162 16.2027C115.919 16.9592 116.879 17.3373 118.043 17.3373ZM122.088 5.95852H125.843V20.5095H122.088V18.7927C120.953 20.2187 119.382 20.9172 117.345 20.9172C115.395 20.9172 113.736 20.1898 112.339 18.7054C110.971 17.2211 110.273 15.3879 110.273 13.2341C110.273 11.0806 110.971 9.27628 112.339 7.79214C113.736 6.30786 115.395 5.55127 117.345 5.55127C119.382 5.55127 120.953 6.24952 122.088 7.67574V5.95852Z" fill="black"/>
<path fill-rule="evenodd" clip-rule="evenodd" d="M141.363 20.5096H136.998L131.701 13.9037V20.5096H127.947V0.138428H131.701V12.3611L136.707 5.95861H141.188L135.339 13.1468L141.363 20.5096Z" fill="black"/>
<path fill-rule="evenodd" clip-rule="evenodd" d="M151.672 11.8665C151.236 9.88731 149.781 8.92709 148.064 8.92709C146.056 8.92709 144.688 10.0038 144.251 11.8665H151.672ZM144.309 14.7767C144.804 16.6099 146.172 17.5121 148.413 17.5121C149.839 17.5121 150.945 17.0176 151.672 16.057L154.699 17.8033C153.273 19.8695 151.148 20.9172 148.355 20.9172C145.939 20.9172 144.019 20.1898 142.563 18.7345C141.108 17.2794 140.381 15.4459 140.381 13.2342C140.381 11.0516 141.108 9.21809 142.534 7.76311C143.96 6.27883 145.823 5.55127 148.064 5.55127C150.188 5.55127 151.963 6.27883 153.331 7.76311C154.728 9.24712 155.426 11.0516 155.426 13.2342C155.426 13.729 155.368 14.2236 155.281 14.7767H144.309Z" fill="black"/>
<path fill-rule="evenodd" clip-rule="evenodd" d="M32.9028 1.86694L36.5588 13.9034L32.9087 25.9282L29.2527 13.8974L32.9028 1.86694Z" fill="black"/>
<mask id="mask0" mask-type="alpha" maskUnits="userSpaceOnUse" x="33" y="0" width="17" height="28">
<path fill-rule="evenodd" clip-rule="evenodd" d="M33.4285 0.138184H49.0974V27.6508H33.4285V0.138184Z" fill="white"/>
</mask>
<g mask="url(#mask0)">
<path fill-rule="evenodd" clip-rule="evenodd" d="M49.0974 27.6508H41.7856L37.0845 12.1747L33.4285 0.138184H40.7403L49.0974 27.6508Z" fill="black"/>
</g>
<path fill-rule="evenodd" clip-rule="evenodd" d="M19.8445 13.8858L16.1884 25.9221L12.5383 13.8974L16.1945 1.86694L19.8445 13.8858Z" fill="black"/>
<mask id="mask1" mask-type="alpha" maskUnits="userSpaceOnUse" x="0" y="0" width="16" height="28">
<path fill-rule="evenodd" clip-rule="evenodd" d="M0 0.138184H15.6687V27.6508H0V0.138184Z" fill="white"/>
</mask>
<g mask="url(#mask1)">
<path fill-rule="evenodd" clip-rule="evenodd" d="M15.6687 27.6392L15.6629 27.6508H8.35716L0 0.138184H7.31179L12.0129 15.6144L15.6687 27.6392Z" fill="black"/>
</g>
<mask id="mask2" mask-type="alpha" maskUnits="userSpaceOnUse" x="16" y="0" width="17" height="28">
<path fill-rule="evenodd" clip-rule="evenodd" d="M16.7141 0.138184H32.3774V27.6508H16.7141V0.138184Z" fill="white"/>
</mask>
<g mask="url(#mask2)">
<path fill-rule="evenodd" clip-rule="evenodd" d="M32.3774 27.6508H25.0713L20.3701 12.1688V12.163L16.7141 0.138184H24.0202L28.7273 15.6204V15.6262L32.3774 27.6508Z" fill="black"/>
</g>
</svg>
