<svg width="136" height="33" viewBox="0 0 136 33" fill="none" xmlns="http://www.w3.org/2000/svg">
<path d="M10.5711 1.1051L11.9886 3.57155C12.2721 4.08185 12.2721 4.70555 11.9886 5.21585L3.5403 19.8728L7.53765 26.7902C8.16135 27.8675 9.3237 28.5479 10.5711 28.5479C11.8185 28.5479 12.9809 27.8675 13.6046 26.7902L17.6019 19.8728L16.553 18.0017L12.017 25.8547C11.7335 26.365 11.1665 26.6768 10.5995 26.6768C10.0041 26.6768 9.46545 26.365 9.18195 25.8547L5.6949 19.8728L13.5479 6.2648L14.9654 8.73125C15.2489 9.24155 15.2489 9.86525 14.9654 10.3756L9.4938 19.8728L10.5711 21.7439L16.5246 11.4245L20.4369 18.2002C21.0323 19.2491 21.0323 20.5249 20.4369 21.5738L16.4679 28.4629C15.8726 29.5118 13.9731 31.8649 10.5711 31.8649C7.1691 31.8649 5.298 29.5118 4.6743 28.4629L0.705302 21.5738C0.109952 20.5249 0.109952 19.2491 0.705302 18.2002L10.5711 1.1051Z" fill="#4B4B4B"/>
<rect x="29.0269" y="8.44775" width="2.74995" height="16.2445" fill="#4B4B4B"/>
<path d="M35.4624 11.4245C36.3549 11.4245 37.0783 10.701 37.0783 9.80858C37.0783 8.91611 36.3549 8.19263 35.4624 8.19263C34.5699 8.19263 33.8464 8.91611 33.8464 9.80858C33.8464 10.701 34.5699 11.4245 35.4624 11.4245Z" fill="#4B4B4B"/>
<rect x="34.0732" y="13.4091" width="2.7783" height="11.2833" fill="#4B4B4B"/>
<path fill-rule="evenodd" clip-rule="evenodd" d="M38.439 18.8523C38.439 15.3369 40.9905 13.1256 44.1373 13.1256C47.2842 13.1256 49.864 15.3369 49.864 18.824C49.864 20.2415 49.3254 22.1976 47.4826 23.0481C49.3537 23.9837 49.8073 25.3445 49.8073 26.7903C49.8073 29.9088 47.4259 31.8366 44.1657 31.8366C40.8771 31.8366 38.439 29.8238 38.439 26.7903H41.2173C41.2173 28.2645 42.5497 29.2284 44.1657 29.2284C45.7816 29.2284 47.029 28.3496 47.029 26.7903C47.029 25.2311 45.5548 24.5223 44.1657 24.5223C40.6503 24.5223 38.439 22.3677 38.439 18.8523ZM41.2173 18.8523C41.2173 20.8368 42.5497 22.226 44.1657 22.226C45.7533 22.226 47.0857 20.8085 47.0857 18.8523C47.0857 16.9245 45.7816 15.4503 44.1657 15.4503C42.5497 15.4503 41.2173 16.8962 41.2173 18.8523Z" fill="#4B4B4B"/>
<path d="M57.9155 13.1255C56.6398 13.1255 55.4207 13.5224 54.4001 14.7982V8.41943H51.6218V24.664H54.4001V18.9373C54.4001 17.2646 55.5341 15.8755 57.1784 15.8755C58.6526 15.8755 59.7299 16.7543 59.7299 18.7955V24.664H62.5082V18.5971C62.5366 15.2801 61.1191 13.1255 57.9155 13.1255Z" fill="#4B4B4B"/>
<path d="M69.2838 22.7645C68.9436 22.7645 68.6601 22.6511 68.49 22.4243C68.3199 22.1975 68.2349 21.8573 68.2349 21.347V15.7904H70.4745L70.7297 13.3807H68.2632V10.2905L65.4566 10.6024V13.409H63.3303V15.8188H65.4566V21.4321C65.4566 22.5944 65.7401 23.4733 66.2787 24.0686C66.8174 24.664 67.6395 24.9758 68.6885 24.9758C69.1704 24.9758 69.624 24.9191 70.106 24.7774C70.5879 24.6356 71.0132 24.4372 71.3817 24.182L70.4178 22.396C70.0493 22.6511 69.6524 22.7645 69.2838 22.7645Z" fill="#4B4B4B"/>
<path d="M80.7089 18.6255C79.5749 17.9168 78.2425 17.8317 76.9384 17.7467C76.1729 17.69 75.0106 17.5199 75.0106 16.5276C75.0106 15.8189 75.7477 15.422 77.0801 15.422C78.1574 15.422 79.093 15.6771 79.8868 16.4142L81.446 14.5998C80.1419 13.4658 78.8095 13.1256 77.0234 13.1256C74.9539 13.1256 72.2323 14.0328 72.2323 16.641C72.2323 17.7183 72.7993 18.7106 73.7348 19.2776C74.7838 19.9296 76.1446 20.0147 77.3069 20.1564C78.1007 20.2415 79.4048 20.4399 79.178 21.5456C79.0363 22.311 78.1007 22.5378 77.4487 22.5662C76.7399 22.5945 76.0312 22.5378 75.3224 22.3677C74.5853 22.1693 73.99 21.8291 73.3379 21.4038L71.9204 23.1899C72.0055 23.2466 72.0905 23.3316 72.0905 23.3316C73.9049 24.8342 76.4281 25.3161 78.7244 24.8058C80.4538 24.4089 81.928 23.1615 81.928 21.2904C81.9847 20.2415 81.6445 19.1925 80.7089 18.6255Z" fill="#4B4B4B"/>
<path fill-rule="evenodd" clip-rule="evenodd" d="M86.2087 14.9117C87.0876 13.6643 88.5901 13.1256 89.8659 13.1256C93.3246 13.1256 95.6209 15.7055 95.6209 19.0224C95.6209 22.2827 93.523 24.9759 89.9226 24.9759C88.7319 24.9759 87.0025 24.579 86.2087 23.36V29.3135L83.4304 29.6253V13.3808H86.1237L86.2087 14.9117ZM86.4639 19.0791C86.4639 20.8368 87.7396 22.5662 89.6391 22.5662C91.5385 22.5662 92.8426 20.8368 92.8143 19.0791C92.8143 17.3498 91.6519 15.4503 89.6391 15.4503C87.6546 15.4503 86.4639 17.3214 86.4639 19.0791Z" fill="#4B4B4B"/>
<path fill-rule="evenodd" clip-rule="evenodd" d="M102.765 22.5378C100.781 22.5378 99.5616 21.3755 99.2498 20.043H108.492C108.775 15.4503 105.94 13.1256 102.538 13.1256C99.3065 13.1256 96.6699 15.6204 96.6699 19.0224C96.6699 22.6229 99.2214 24.9476 102.737 24.9476C104.438 24.9476 106.394 24.3522 107.585 23.1332L105.799 21.3755C105.147 22.0275 103.786 22.5378 102.765 22.5378ZM102.538 15.422C104.154 15.422 105.487 16.5843 105.799 17.9168H99.2498C99.6467 16.4426 101.036 15.422 102.538 15.422Z" fill="#4B4B4B"/>
<path fill-rule="evenodd" clip-rule="evenodd" d="M115.636 22.5378C113.652 22.5378 112.432 21.3755 112.121 20.043H121.363C121.646 15.4503 118.811 13.1256 115.409 13.1256C112.177 13.1256 109.541 15.6204 109.541 19.0224C109.541 22.6229 112.092 24.9476 115.608 24.9476C117.309 24.9476 119.265 24.3522 120.456 23.1332L118.669 21.3755C118.017 22.0275 116.657 22.5378 115.636 22.5378ZM115.438 15.422C117.054 15.422 118.386 16.5843 118.698 17.9168H112.149C112.546 16.4426 113.935 15.422 115.438 15.422Z" fill="#4B4B4B"/>
<path fill-rule="evenodd" clip-rule="evenodd" d="M131.739 23.1898C130.86 24.4372 129.357 24.9758 128.082 24.9758C124.623 24.9758 122.327 22.396 122.327 19.1074C122.327 15.8188 124.396 13.1539 127.997 13.1539C129.187 13.1539 130.945 13.5224 131.739 14.7415V8.44775H134.517V24.6923H131.824L131.739 23.1898ZM131.455 19.0223C131.455 17.2646 130.18 15.5353 128.28 15.5353C126.381 15.5353 125.105 17.2646 125.105 19.0223C125.105 20.7517 126.267 22.6511 128.28 22.6511C130.265 22.6511 131.455 20.78 131.455 19.0223Z" fill="#4B4B4B"/>
</svg>
