<svg width="80" height="45" viewBox="0 0 80 45" fill="none" xmlns="http://www.w3.org/2000/svg">
<path fill-rule="evenodd" clip-rule="evenodd" d="M0.879883 1.32258C2.51605 0.945932 4.16728 1.05501 5.80496 1.24846C7.19736 1.41298 7.51435 2.43867 7.51194 3.65932C7.5044 7.37038 7.50922 11.0817 7.50922 14.7931C7.50922 20.2096 7.48361 25.6261 7.53182 31.0421C7.54116 32.0934 7.23653 32.4206 6.1804 32.4134C5.14688 32.4062 4.80277 32.1172 4.80759 31.0496C4.84586 22.4234 4.80638 13.7972 4.8555 5.17104C4.86213 4.00433 4.5819 3.57344 3.37391 3.67047C2.55522 3.73646 1.66753 3.93412 0.879883 3.43182V1.32258Z" fill="#6F6F6F"/>
<path fill-rule="evenodd" clip-rule="evenodd" d="M9.17213 41.0124C8.57552 41.1148 8.3887 40.7472 8.38267 40.0572C8.37966 39.3615 8.57853 39.0297 9.31375 39.102C9.94351 39.1623 10.5763 39.2376 10.5763 40.0452C10.5763 40.8406 9.95556 40.9582 9.17213 41.0124ZM11.3627 40.3887C11.7454 40.0271 11.4019 39.2229 10.8897 38.8097C9.97063 38.0685 8.87684 38.2975 7.87947 38.4723C7.27683 38.5777 7.57212 39.322 7.55706 39.78C7.51186 41.1209 7.5209 42.4648 7.50884 43.8086H8.4128C8.59058 43.1096 7.90357 42.0158 8.84972 41.7506C9.98268 41.4373 9.86818 42.8203 10.3684 43.4019C10.4558 43.5046 10.4738 43.67 10.522 43.8086H11.426C11.0252 42.6847 10.0369 41.6334 11.3627 40.3887Z" fill="#6F6F6F"/>
<path fill-rule="evenodd" clip-rule="evenodd" d="M59.4474 41.841C59.3932 41.9826 58.5224 42.0519 58.3627 41.8681C57.757 41.166 58.5917 40.6929 58.7755 39.795C59.1763 40.6387 59.7126 41.1449 59.4474 41.841ZM58.6309 38.3427C57.8625 40.1626 57.0911 41.9856 56.3228 43.8086H57.2267C57.2267 42.98 57.5582 42.5581 58.4682 42.5792C59.4263 42.6033 60.4026 42.4587 60.5412 43.8086H61.1439C60.9179 41.7807 59.6795 40.19 58.6309 38.3427Z" fill="#6F6F6F"/>
<path fill-rule="evenodd" clip-rule="evenodd" d="M23.8825 41.826C23.6776 42.1756 22.9846 41.9616 22.4783 41.8953C22.5597 41.1692 22.7977 40.5997 23.3461 39.9337C23.5962 40.678 24.226 41.2355 23.8825 41.826ZM23.2829 37.933C22.3217 40.1778 21.3394 41.8984 20.7668 43.8087H21.3695C21.7612 42.7029 22.5898 42.5432 23.6595 42.5613C24.6087 42.5763 24.7684 43.1609 24.9853 43.8087H25.588C25.3318 41.7899 24.1025 40.1959 23.2829 37.933Z" fill="#6F6F6F"/>
<path fill-rule="evenodd" clip-rule="evenodd" d="M45.4752 43.8087C45.452 43.3992 44.6716 43.3447 44.9476 42.8608C45.2721 42.2925 45.6416 42.8653 45.9661 42.9617C46.4997 43.1205 47.0029 43.1754 47.2358 42.5887C47.451 42.0469 46.9912 41.783 46.5934 41.5513C46.3777 41.4253 46.1499 41.3192 45.9254 41.2087C45.0464 40.7763 44.5423 40.1025 44.9973 39.1497C45.487 38.124 46.4461 38.2304 47.3588 38.4745C47.633 38.548 47.9756 38.7191 47.8222 39.0994C47.7119 39.3718 47.4139 39.3426 47.1696 39.2353C46.632 38.9994 46.0125 38.7969 45.7756 39.5086C45.5096 40.308 46.3051 40.4632 46.8059 40.7377C48.5243 41.6799 48.6445 42.4215 47.2831 43.8087H45.4752Z" fill="#6F6F6F"/>
<path fill-rule="evenodd" clip-rule="evenodd" d="M64.7598 43.8087C64.7441 42.9135 64.7188 42.0182 64.7149 41.1227C64.7077 39.3856 64.7125 39.3856 63.1631 38.6579C64.3705 38.1357 65.4845 38.4271 66.562 38.4102C66.646 38.409 66.7904 38.5892 66.8069 38.7001C66.8434 38.9451 66.6409 39.0566 66.4414 39.0539C65.4161 39.0382 65.5962 39.7722 65.5586 40.405C65.4914 41.5394 65.7638 42.6941 65.3624 43.8087H64.7598Z" fill="#6F6F6F"/>
<path fill-rule="evenodd" clip-rule="evenodd" d="M52.1042 43.8088C52.1114 42.7623 52.1265 41.7161 52.1235 40.6696C52.1211 39.785 52.4188 38.6894 50.6416 38.8123C51.9768 38.244 53.0892 38.3703 54.3379 38.6204C52.6005 38.9666 53.019 40.2234 53.0018 41.2672C52.988 42.1142 53.0049 42.9615 53.0082 43.8088H52.1042Z" fill="#6F6F6F"/>
<path fill-rule="evenodd" clip-rule="evenodd" d="M14.7405 43.8088C14.9195 42.018 14.3497 40.1839 15.0533 38.4236C15.5408 39.4017 15.4052 40.4512 15.3627 41.4772C15.2958 43.0916 15.2892 43.1185 16.9302 43.2064C17.3313 43.2281 17.7329 43.2143 18.0571 43.5081C18.0562 43.6084 18.0556 43.7084 18.055 43.8088H14.7405Z" fill="#6F6F6F"/>
<path fill-rule="evenodd" clip-rule="evenodd" d="M28.6014 43.8088C28.7791 42.0165 28.2105 40.1812 28.9111 38.4191C29.4803 39.3953 29.2079 40.4677 29.1715 41.4811C29.1275 42.7056 29.386 43.4234 30.785 43.2239C31.0863 43.1808 31.372 43.2992 31.6082 43.5057C31.6103 43.6069 31.6124 43.7078 31.6146 43.8088H28.6014Z" fill="#6F6F6F"/>
<path fill-rule="evenodd" clip-rule="evenodd" d="M41.8013 43.4923C41.8206 43.5977 41.8399 43.7032 41.8592 43.8087H38.5447C38.5552 43.7053 38.5658 43.6017 38.576 43.4983C39.6502 42.9686 40.7256 43.0912 41.8013 43.4923Z" fill="#6F6F6F"/>
<path fill-rule="evenodd" clip-rule="evenodd" d="M73.1571 43.4962C73.1704 43.6005 73.1833 43.7044 73.1966 43.8087H69.8821C69.8974 43.7038 69.9131 43.5993 69.9285 43.4947C71.0051 42.9695 72.0811 43.0909 73.1571 43.4962Z" fill="#6F6F6F"/>
<mask id="mask0" mask-type="alpha" maskUnits="userSpaceOnUse" x="65" y="0" width="15" height="33">
<path fill-rule="evenodd" clip-rule="evenodd" d="M65.666 0.719971H79.2297V32.8799H65.666V0.719971Z" fill="white"/>
</mask>
<g mask="url(#mask0)">
<path fill-rule="evenodd" clip-rule="evenodd" d="M76.5203 26.07C76.4781 28.4505 74.9595 30.1137 72.8442 30.2765C70.4608 30.4603 68.457 28.8482 68.4208 26.3834C68.3304 20.0135 68.3395 13.6376 68.4118 7.26766C68.4389 4.93544 70.295 3.22394 72.4585 3.22394C74.6823 3.22394 76.4781 5.00776 76.5203 7.40627C76.5776 10.5159 76.5354 13.6285 76.5354 16.7381C76.5324 19.8508 76.5746 22.9604 76.5203 26.07ZM79.2171 7.65636C79.187 3.63675 76.3214 0.716962 72.4525 0.719975C68.6043 0.726002 65.718 3.65483 65.6939 7.68348C65.6577 13.7581 65.6547 19.8327 65.6969 25.9043C65.721 29.9088 68.677 32.8949 72.4796 32.8799C76.2973 32.8678 79.19 29.8787 79.2171 25.8772C79.2412 22.867 79.2232 19.8538 79.2232 16.8436C79.2232 13.7792 79.2412 10.7178 79.2171 7.65636Z" fill="#6F6F6F"/>
</g>
<path fill-rule="evenodd" clip-rule="evenodd" d="M21.6809 13.0249C24.0361 11.1648 26.3891 10.9316 28.7598 12.202C31.2536 13.5386 32.2642 15.8121 32.26 18.5803C32.2561 21.0897 32.3091 23.6015 32.2229 26.1085C32.0834 30.1616 29.2212 32.9702 25.4507 32.8653C21.6993 32.7607 18.9462 29.7771 18.9073 25.809C18.9013 25.1847 18.9311 24.6519 19.7383 24.7574C20.3964 24.8436 21.3416 24.3169 21.5417 25.5116C21.6409 26.104 21.6773 26.7127 21.8367 27.2876C22.433 29.4405 23.7537 30.3957 25.9015 30.2827C27.7893 30.1836 29.2817 28.8891 29.4589 26.841C29.7313 23.6913 29.7313 20.516 29.4643 17.3666C29.295 15.3677 27.6233 14.0241 25.6698 13.9617C23.685 13.8981 22.3734 14.8418 21.9274 16.9065C21.6788 18.0578 21.1 18.3622 20.0412 18.2829C18.7907 18.1892 18.9983 17.2862 18.9965 16.5127C18.9862 12.0456 18.985 7.57793 18.9947 3.11086C18.9989 1.30113 19.2842 1.02633 21.0991 1.02271C24.2614 1.01669 27.4241 1.04501 30.5858 1.00584C31.4675 0.99499 31.8577 1.23725 31.8574 2.18309C31.8571 3.11026 31.6308 3.5547 30.5922 3.5315C28.0334 3.47395 25.4724 3.53693 22.9127 3.49926C22.0787 3.48691 21.6306 3.6002 21.6571 4.62168C21.7273 7.32874 21.6809 10.0391 21.6809 13.0249Z" fill="#6F6F6F"/>
<path fill-rule="evenodd" clip-rule="evenodd" d="M51.2307 3.70079C48.7406 3.70079 46.2442 3.66071 43.7499 3.72007C42.7305 3.74478 42.3306 3.46817 42.3258 2.38071C42.3207 1.2604 42.7874 1.04767 43.7749 1.06545C46.9869 1.1236 50.2002 1.1007 53.4129 1.1236C55.1166 1.13595 55.4893 1.72353 54.6854 3.2696C53.1354 6.24935 51.5414 9.20651 49.9363 12.157C49.6265 12.7265 49.4267 13.0956 50.29 13.3081C53.371 14.0662 54.8975 16.2143 55.2238 19.2242C55.5104 21.8668 55.5776 24.5383 55.1479 27.1763C54.5892 30.6075 52.1232 32.7592 48.7683 32.8671C45.6223 32.9686 43.0056 30.8437 42.2107 27.5316C42.117 27.142 42.0227 26.7439 42.0073 26.3465C41.9835 25.7324 41.4297 24.808 42.6527 24.7718C43.4913 24.7471 44.5218 24.3002 44.6538 25.9454C44.8762 28.7179 46.1788 30.1263 48.2016 30.2769C50.3819 30.4393 51.9632 29.4091 52.4008 27.2607C52.9546 24.5404 52.9046 21.7535 52.4737 19.0317C52.0536 16.3776 50.3768 15.2124 47.5483 15.1835C45.6913 15.1645 45.4068 14.7279 46.3014 13.0727C47.7553 10.382 49.2679 7.72341 50.7417 5.04347C50.9514 4.662 51.3076 4.32754 51.2307 3.70079Z" fill="#6F6F6F"/>
<path fill-rule="evenodd" clip-rule="evenodd" d="M41.8015 43.4923C40.7264 43.4944 39.6513 43.4962 38.5762 43.4983C38.5563 42.6498 38.5211 41.8016 38.519 40.9531C38.5117 38.0405 38.7455 37.8733 41.8371 38.5844C41.5798 39.3395 40.9446 39.0273 40.4769 39.068C39.9252 39.1162 39.3542 39.0011 39.3602 39.8674C39.3657 40.6403 39.8622 40.5695 40.3706 40.6108C40.7695 40.6433 41.4436 40.4206 41.405 41.0872C41.3746 41.6136 40.7535 41.3695 40.4007 41.3824C39.811 41.4035 39.3229 41.3758 39.3524 42.2249C39.3834 43.1187 39.9855 42.8987 40.4995 42.9855C40.956 43.0629 41.653 42.6082 41.8015 43.4923Z" fill="#6F6F6F"/>
<path fill-rule="evenodd" clip-rule="evenodd" d="M73.1575 43.4963C72.0812 43.4957 71.0048 43.4951 69.9288 43.4948C69.9107 42.5441 69.8803 41.5935 69.8773 40.6428C69.8698 38.2627 70.2657 37.9406 72.6208 38.3717C72.8574 38.4151 73.1683 38.385 73.1343 38.743C73.1032 39.069 72.8007 39.0479 72.5627 39.0675C72.3632 39.0838 72.1616 39.0684 71.9618 39.0795C71.3972 39.1106 70.6963 38.8846 70.7162 39.8853C70.7343 40.8007 71.389 40.5394 71.8892 40.6081C72.249 40.6573 72.8296 40.4948 72.7682 41.1005C72.7227 41.5504 72.2098 41.3708 71.8934 41.3892C71.3119 41.4232 70.6589 41.2343 70.7077 42.2353C70.7584 43.2691 71.4993 42.8596 72.0116 42.9813C72.4195 43.0778 73.0942 42.6267 73.1575 43.4963Z" fill="#6F6F6F"/>
<path fill-rule="evenodd" clip-rule="evenodd" d="M18.0573 43.5081C15.0341 43.5304 15.0329 43.5304 15.035 40.531C15.0356 39.8287 15.0471 39.126 15.0534 38.4233C15.7995 38.4049 16.5458 38.3727 17.2919 38.3751C17.5604 38.376 17.991 38.273 18.0103 38.6683C18.0362 39.1929 17.5489 39.0431 17.2368 39.0733C16.99 39.0968 16.7384 39.0904 16.4898 39.0787C15.976 39.0546 15.6328 39.1676 15.6352 39.8022C15.6374 40.3629 15.8139 40.641 16.4063 40.6031C16.7025 40.5841 17.0111 40.5895 17.2976 40.6555C17.457 40.692 17.6791 40.8571 17.7053 40.996C17.7677 41.3262 17.4884 41.3796 17.2295 41.3883C16.9306 41.3982 16.6302 41.4166 16.3328 41.3961C15.8136 41.3606 15.6286 41.592 15.6389 42.0994C15.6485 42.5909 15.6786 42.9172 16.325 42.9961C16.9083 43.0673 17.7463 42.4821 18.0573 43.5081Z" fill="#6F6F6F"/>
<path fill-rule="evenodd" clip-rule="evenodd" d="M31.6083 43.5056C28.8925 43.5391 28.8913 43.5391 28.8934 40.8275C28.8943 40.0248 28.9049 39.2217 28.9112 38.419C29.3891 38.3271 29.5126 38.5914 29.5093 39.0012C29.5042 39.5939 29.5292 40.1869 29.5066 40.7787C29.4602 42.0129 29.2351 43.3549 31.2431 42.9934C31.5279 42.9421 31.6306 43.229 31.6083 43.5056Z" fill="#6F6F6F"/>
<path fill-rule="evenodd" clip-rule="evenodd" d="M4.48504 41.1201C3.56691 41.5652 3.00857 41.4437 2.44751 41.1876C2.98778 40.7157 3.55094 40.7558 4.48504 41.1201Z" fill="#6F6F6F"/>
<path fill-rule="evenodd" clip-rule="evenodd" d="M75.8289 41.241C76.8081 40.7158 77.368 40.7387 78.1894 41.1094C77.4286 41.5878 76.8476 41.4604 75.8289 41.241Z" fill="#6F6F6F"/>
</svg>
