<svg width="49" height="49" viewBox="0 0 49 49" fill="none" xmlns="http://www.w3.org/2000/svg">
<path fill-rule="evenodd" clip-rule="evenodd" d="M47.0309 15.1106C46.5954 14.6796 45.8876 14.6841 45.4566 15.1242C45.1503 15.435 45.0755 15.8796 45.2093 16.2676L45.1843 16.2766C46.1984 18.8242 46.7723 21.5918 46.7723 24.5C46.7723 36.8022 36.8022 46.7723 24.5 46.7723C12.2001 46.7723 2.22768 36.8022 2.22768 24.5C2.22768 12.1978 12.2001 2.2277 24.5 2.2277C30.7951 2.2277 36.471 4.84557 40.5203 9.04912L40.5339 9.03324C40.974 9.43023 41.6477 9.42116 42.0674 8.99469C42.4984 8.55458 42.4939 7.85134 42.0561 7.41807C42.013 7.37722 41.9585 7.35906 41.9132 7.3273C37.4782 2.81523 31.3282 0 24.5 0C10.9683 0 0 10.9683 0 24.5C0 38.0294 10.9683 49 24.5 49C38.0317 49 49 38.0294 49 24.5C49 21.3513 48.3852 18.3501 47.3009 15.5824C47.2487 15.4123 47.1693 15.2467 47.0309 15.1106ZM24.3151 31.2661L13.914 20.83C13.7107 20.626 13.432 20.5 13.1214 20.5C12.5025 20.5 12 21.0041 12 21.6252C12 21.9368 12.1256 22.2164 12.3289 22.4227L23.5408 33.67C23.7441 33.874 24.0227 34 24.3333 34C24.6531 34 24.9363 33.8648 25.1419 33.6494L25.1441 33.654L43.868 13.9734C43.868 13.9757 43.8703 13.978 43.8703 13.9803L45.4713 12.2937C45.4713 12.2937 45.469 12.2914 45.469 12.2891L48.6894 8.90205L48.6871 8.89976C48.879 8.69809 49 8.4254 49 8.12519C49 7.50644 48.4975 7 47.8786 7C47.5588 7 47.2733 7.1375 47.0701 7.35291L47.0678 7.34832L44.1877 10.3779C44.1854 10.3756 44.1831 10.371 44.1809 10.3687L42.6164 12.0141C42.6186 12.0164 42.6209 12.021 42.6209 12.0233L24.3151 31.2661Z" fill="#06495B"/>
</svg>
