<svg width="51" height="51" viewBox="0 0 51 51" fill="none" xmlns="http://www.w3.org/2000/svg">
<path fill-rule="evenodd" clip-rule="evenodd" d="M42.8499 11.0008H22.1501C21.5153 11.0008 21 11.4469 21 11.999C21 12.551 21.5153 12.9992 22.1501 12.9992H42.8499C43.4847 12.9992 44 12.551 44 11.999C44 11.4469 43.4847 11.0008 42.8499 11.0008ZM49 46.6995C49 47.9716 47.9692 49 46.6995 49H5.30047C4.02842 49 3 47.9716 3 46.6995V5.30046C3 4.03074 4.02842 3 5.30047 3H46.6995C47.9692 3 49 4.03074 49 5.30046V46.6995ZM46.3628 0H4.63722C2.07542 0 0 2.07542 0 4.63722V46.3628C0 48.9269 2.07542 51 4.63722 51H46.3628C48.9246 51 51 48.9269 51 46.3628V4.63722C51 2.07542 48.9246 0 46.3628 0ZM42.8499 25.0008H22.1501C21.5153 25.0008 21 25.4469 21 25.999C21 26.551 21.5153 26.9992 22.1501 26.9992H42.8499C43.4847 26.9992 44 26.551 44 25.999C44 25.4469 43.4847 25.0008 42.8499 25.0008ZM12.7281 38.2727L11.5 35L10.2742 38.2727H7L9.66013 40.3193L8.43432 44L11.5 41.7494L14.568 44L13.3422 40.3193L16 38.2727H12.7281ZM11.5 21L10.2742 24.2742H7L9.66013 26.3203L8.43432 30L11.5 27.75L14.568 30L13.3422 26.3203L16 24.2742H12.7281L11.5 21ZM11.5 7L10.2742 10.2742H7L9.66013 12.3203L8.43432 16L11.5 13.75L14.568 16L13.3422 12.3203L16 10.2742H12.7281L11.5 7ZM42.8499 38H22.1501C21.5153 38 21 38.4496 21 39.001C21 39.5504 21.5153 40 22.1501 40H42.8499C43.4847 40 44 39.5504 44 39.001C44 38.4496 43.4847 38 42.8499 38Z" fill="#06495B"/>
</svg>
