<svg width="59" height="48" viewBox="0 0 59 48" fill="none" xmlns="http://www.w3.org/2000/svg">
<path fill-rule="evenodd" clip-rule="evenodd" d="M12 45C12.6318 41.2151 15.9729 39.7056 19.3857 38.4895L19.4933 38.4537C21.9267 37.8109 26.261 35.2332 26.261 29.7014C26.261 25.0095 24.3463 22.7206 23.3144 21.4889C23.1103 21.2403 22.862 20.9222 22.9172 20.9917C22.8344 20.8103 22.4288 19.7577 23.0137 17.3075C23.2896 16.1609 22.8234 15.5293 22.8234 15.5293C22.084 13.8787 20.71 10.8083 21.7418 8.32683C23.1268 4.89355 24.3546 4.21719 26.5783 3.22504C26.7079 3.16683 26.8349 3.10188 26.9535 3.02348C27.3729 2.75027 29.1524 2 31.1637 2C32.1707 2 33.0177 2.19036 33.6881 2.56886C34.4937 3.02125 35.2662 3.87902 36.4332 6.64043C38.6073 11.5608 37.2306 14.3132 36.5353 15.2673C36.0746 15.9011 35.9173 16.7006 36.0967 17.4598C36.6346 19.7129 36.287 20.6669 36.196 20.8551C36.1739 20.8819 35.8483 21.2895 35.6828 21.4889C34.6537 22.7206 32.7362 25.0095 32.7362 29.7014C32.7362 35.2332 37.0733 37.8109 39.5067 38.4537L39.6143 38.4895C43.0271 39.7056 46.3682 41.2151 47 45H12ZM40.6328 36.2844C40.6328 36.2844 35.8528 35.1444 35.8528 30.1533C35.8528 25.7689 37.8164 24.2244 38.5741 23.16C38.5741 23.16 40.1331 21.7956 39.0874 17.3911C40.8283 14.9778 41.3933 11.0489 39.264 6.19779C38.0771 3.36445 37.0315 1.80888 35.4346 0.90888C34.264 0.244453 32.9332 0 31.6377 0C29.2287 0 26.9446 0.853333 26.032 1.45112C23.365 2.64888 21.5725 3.75112 19.8886 7.95555C18.4302 11.4867 20.1657 15.3155 21.0212 17.24C19.9783 21.6444 21.4231 23.16 21.4231 23.16C22.1836 24.2244 24.1445 25.7689 24.1445 30.1533C24.1445 35.1444 19.3672 36.2844 19.3672 36.2844C16.3335 37.3756 10 39.4667 10 46.6667C10 46.6667 10 48 11.3335 48H48.6665C50 48 50 46.6667 50 46.6667C50 39.4667 43.6665 37.3756 40.6328 36.2844ZM53.4488 32.7654C53.4488 32.7654 50.5187 32.0915 50.5187 28.2439C50.5187 24.8633 51.5256 23.674 52.1196 22.8525C52.1196 22.8525 53.2543 21.683 52.4365 18.2892C53.1078 16.8048 54.4716 13.8536 53.3262 11.1314C52.005 7.89174 51.1287 7.04161 49.0376 6.1188C48.3211 5.65852 46.5284 5 44.6371 5C43.7448 5 42.8338 5.16298 42 5.54398C42.333 6.39852 42.6153 7.24643 42.8178 8.08112C42.8497 8.06352 42.8844 8.03709 42.919 8.01727C43.3639 7.76839 43.9445 7.64286 44.6371 7.64286C45.9903 7.64286 47.3088 8.14059 47.6311 8.34541C47.7457 8.42031 47.8682 8.48638 47.9908 8.53924C49.2774 9.10745 49.7595 9.31888 50.9076 12.1379C51.6001 13.7809 50.6145 15.9634 50.0845 17.1351C49.8394 17.6747 49.7568 18.3398 49.8953 18.9168C50.2523 20.3991 50.0871 21.0928 50.0285 21.2624C50.0232 21.2734 50.0152 21.2822 50.0072 21.2932L49.9193 21.4143C49.2134 22.3768 47.9029 24.1739 47.9029 28.2439C47.9029 32.7918 50.9289 34.8026 52.6843 35.2938C54.3544 35.8972 55.8968 36.8442 56.2883 39.3549L50.6332 39.3571C51.134 40.1346 51.5469 41.0199 51.8612 42L57.6921 41.9978C59 41.9978 59 40.6764 59 40.6764C59 35.3907 55.8301 33.6023 53.4488 32.7654ZM6.34656 35.2938C8.11053 34.8026 11.1513 32.7918 11.1513 28.2439C11.1513 24.1739 9.83168 22.3768 9.12502 21.4143L9.03669 21.2932C9.02866 21.2822 9.02063 21.2734 9.0126 21.2624C8.95639 21.0928 8.78775 20.3991 9.14911 18.9168C9.2883 18.3398 9.20532 17.6747 8.95906 17.1351C8.42639 15.9634 7.436 13.7809 8.13195 12.1379C9.28563 9.31888 9.76744 9.10745 11.063 8.53924C11.1888 8.48638 11.3092 8.42031 11.4243 8.34541C11.7482 8.14059 13.0732 7.64286 14.433 7.64286C15.0861 7.64286 15.6295 7.76398 16.0658 7.98201C16.1809 7.52834 16.3174 7.07245 16.5021 6.61434C16.6627 6.2113 16.834 5.86554 17 5.50875C16.1836 5.15196 15.3003 5 14.433 5C12.5325 5 10.7311 5.65852 10.011 6.1188C7.90978 7.04161 7.02645 7.89174 5.70147 11.1314C4.55046 13.8536 5.92096 16.8048 6.5955 18.2892C5.77106 21.683 6.91403 22.8525 6.91403 22.8525C7.51094 23.674 8.52543 24.8633 8.52543 28.2439C8.52543 32.0915 5.57834 32.7654 5.57834 32.7654C3.188 33.6023 0 35.3907 0 40.6764C0 40.6764 0 41.9978 1.31428 41.9978L7.17367 42C7.48953 41.0199 7.90175 40.1346 8.40765 39.3571L2.72493 39.3549C3.11841 36.8442 4.66824 35.8972 6.34656 35.2938Z" fill="#06495B"/>
</svg>
