<svg width="51" height="50" viewBox="0 0 51 50" fill="none" xmlns="http://www.w3.org/2000/svg">
<path fill-rule="evenodd" clip-rule="evenodd" d="M49.8407 17.0463C49.2008 17.0463 48.6814 17.5555 48.6814 18.1829V43.1829C48.6814 45.6921 46.606 47.7269 44.0465 47.7269H6.95347C4.39403 47.7269 2.31861 45.6921 2.31861 43.1829V6.81714C2.31861 4.30786 4.39403 2.27316 6.95347 2.27316H32.4535C33.0957 2.27316 33.6128 1.76389 33.6128 1.13657C33.6128 0.50925 33.0957 0 32.4535 0H6.95347C3.11194 0 0 3.05325 0 6.81714V43.1829C0 46.9491 3.11194 50 6.95347 50H44.0465C47.8881 50 51 46.9491 51 43.1829V18.1829C51 17.5555 50.4806 17.0463 49.8407 17.0463ZM16.8579 30H21V34.1421L16 35L16.8579 30ZM40.1306 7L45 11.6817L23.8671 32V27.3183H19L40.1306 7ZM43.4116 3.96031C44.0051 3.36677 44.8231 3 45.7256 3C47.5351 3 49 4.46713 49 6.27436C49 7.17687 48.6332 7.99713 48.0419 8.58844L46.6303 10L42 5.36964L43.4116 3.96031ZM13 38L22.8284 36.3135L49.3134 9.82839C50.3549 8.78691 51 7.34902 51 5.75864C51 2.5779 48.4221 0 45.2414 0C43.6533 0 42.2131 0.645056 41.1716 1.68653L14.6865 28.1716L13 38Z" fill="#06495B"/>
</svg>
