<svg width="52" height="52" viewBox="0 0 52 52" fill="none" xmlns="http://www.w3.org/2000/svg">
<path fill-rule="evenodd" clip-rule="evenodd" d="M6.44074 43.4399C6.16778 43.7118 6.00028 44.0845 6.00028 44.5C6.00028 45.3279 6.67337 46 7.50155 46C8.32973 46 8.99972 45.3279 8.99972 44.5C8.99972 43.6721 8.32973 43 7.50155 43C7.08591 43 6.7106 43.168 6.44074 43.4399ZM50.097 10.3013L49.0999 11.2956L49.0926 11.2859L43.1833 17.1961L43.1686 17.1817C42.1007 18.2481 40.627 18.9054 38.9994 18.9054C35.7393 18.9054 33.0974 16.262 33.0974 13.0024C33.0974 11.375 33.7573 9.90167 34.8204 8.83518L33.1463 7.16203C31.6506 8.65703 30.722 10.7202 30.722 13.0024C30.722 17.5741 34.4269 21.2815 38.9994 21.2815C41.2844 21.2815 43.347 20.3498 44.8402 18.8548L44.8525 18.8669L49.249 14.4709C50.1386 17.7378 49.7158 20.8722 47.7533 22.8824L41.4164 29.3656C40.5806 30.2202 39.3562 30.733 38.1489 30.733C38.1 30.7306 34.0994 30.4585 30.1037 27.9524L30.0939 27.9741C29.9106 27.8585 29.7053 27.7743 29.4732 27.7743C29.0748 27.7743 28.7375 27.9861 28.5225 28.2943L28.4809 28.2678L10.4354 48.2541C9.57755 49.1087 8.39716 49.6359 7.09213 49.6359C4.47963 49.6359 2.36323 47.5222 2.36323 44.9102C2.36323 43.6054 2.89355 42.4233 3.74891 41.5663L23.6665 23.595L23.6347 23.5589C23.9402 23.347 24.1553 23.0076 24.1553 22.6031C24.1553 22.348 24.0575 22.1241 23.9182 21.9315L23.9255 21.9243C20.5041 17.3791 20.3819 14.0015 23.3292 10.8044L29.6442 4.34538C31.245 2.70833 33.3369 2.36409 34.8106 2.36409H34.8155C35.7075 2.36409 36.6288 2.49647 37.5526 2.73482L33.1365 7.15L34.8081 8.82074L40.7174 2.91297L40.7076 2.90333L41.7463 1.86574C39.4417 0.647589 37.0492 0 34.8155 0H34.8106C32.1785 0 29.7713 0.869085 28.0068 2.67462L21.6699 9.15777C17.5055 13.6548 18.6052 18.2578 21.4304 22.4226L2.07729 39.8956C0.79426 41.1787 0 42.953 0 44.9102C0 48.827 3.17459 52 7.09213 52C9.04967 52 10.8239 51.208 12.107 49.9248L29.7175 30.4585C33.7255 32.7167 37.5453 33.097 38.1391 33.097C39.867 33.097 41.7096 32.4109 43.0538 31.0363L49.3883 24.5507C52.69 21.1731 52.7877 15.4844 50.097 10.3013Z" fill="#06495B"/>
</svg>
