<svg width="19" height="20" viewBox="0 0 19 20" fill="none" xmlns="http://www.w3.org/2000/svg">
<mask id="mask0" mask-type="alpha" maskUnits="userSpaceOnUse" x="0" y="1" width="19" height="18">
<path fill-rule="evenodd" clip-rule="evenodd" d="M0 1H19V19H0V1Z" fill="white"/>
</mask>
<g mask="url(#mask0)">
<path fill-rule="evenodd" clip-rule="evenodd" d="M18.991 15.2054C19.0312 15.4978 18.9372 15.7522 18.7094 15.9682L16.0342 18.485C15.9136 18.6121 15.7561 18.7202 15.5616 18.8093C15.3672 18.8981 15.1761 18.9555 14.9884 18.9808C14.975 18.9808 14.9346 18.9841 14.8676 18.9905C14.8007 18.9967 14.7135 19 14.6063 19C14.3513 19 13.9391 18.9586 13.3691 18.8759C12.7993 18.7933 12.102 18.59 11.2774 18.2658C10.4525 17.9417 9.51727 17.4554 8.47143 16.8072C7.42558 16.1589 6.3125 15.269 5.13252 14.1376C4.1938 13.2605 3.41604 12.4215 2.79928 11.6208C2.18232 10.8199 1.68619 10.0793 1.31084 9.39937C0.935297 8.71924 0.653711 8.10272 0.466037 7.54975C0.278362 6.99678 0.151002 6.52017 0.0839086 6.11965C0.0168643 5.71931 -0.0100029 5.40471 0.00330699 5.17586C0.0168643 4.94701 0.023445 4.81985 0.023445 4.79442C0.0503122 4.61651 0.110578 4.43527 0.204539 4.25098C0.29845 4.06664 0.412302 3.91729 0.54644 3.80298L3.22158 1.26694C3.40926 1.08903 3.6238 1 3.86521 1C4.03957 1 4.1938 1.04766 4.32794 1.14292C4.46208 1.23837 4.57588 1.35601 4.66984 1.49579L6.82199 5.36644C6.94277 5.56982 6.97621 5.79243 6.92268 6.0339C6.86894 6.27542 6.75494 6.4788 6.58058 6.64405L5.59505 7.57831C5.56818 7.60378 5.54478 7.64501 5.52469 7.70238C5.5046 7.75951 5.49456 7.80717 5.49456 7.84525C5.5481 8.11224 5.66887 8.41731 5.85655 8.76047C6.01755 9.06574 6.26554 9.43751 6.60067 9.87593C6.93604 10.3146 7.41208 10.8199 8.02884 11.392C8.63223 11.9766 9.16859 12.431 9.63805 12.7553C10.1072 13.0793 10.4995 13.3178 10.8147 13.4703C11.1298 13.6229 11.3712 13.7151 11.5387 13.7468L11.7902 13.7944C11.8169 13.7944 11.8606 13.7849 11.9209 13.7658C11.9812 13.7468 12.0248 13.7244 12.0517 13.6989L13.198 12.5932C13.4396 12.3898 13.7211 12.2881 14.0428 12.2881C14.2709 12.2881 14.4518 12.3262 14.586 12.4025H14.6061L18.488 14.5762C18.7697 14.7415 18.9372 14.9513 18.991 15.2054Z" fill="#EAB347"/>
</g>
</svg>
